# xmcd
#
# Track frame offsets: 
#        150
#        20399
#        41992
#        60535
#        82114
#        96063
#        111868
#        136361
#        150904
#        161685
#        178783
#
# Disc length: 2622 seconds
#
# Revision: 0
# Processed by: cddbd v1.5.1PL2 Copyright (c) Steve Scherf et al.
# Submitted via: ExactAudioCopy v0.95b3
#
DISCID=8a0a3c0b
DTITLE=Eddie Burns - 2nd Degree Burns
DYEAR=2005
DGENRE=Blues
TTITLE0=I'll Always Be Around
TTITLE1=The Thing To Do
TTITLE2=Mean and Evil
TTITLE3=Hen Pecked
TTITLE4=Paradise Valley
TTITLE5=Candy Baby
TTITLE6=Fun Time
TTITLE7=Sugar Girl
TTITLE8=The Only Woman
TTITLE9=Jingling Baby
TTITLE10=Christmas Song
EXTD=
EXTT0=
EXTT1=
EXTT2=
EXTT3=
EXTT4=
EXTT5=
EXTT6=
EXTT7=
EXTT8=
EXTT9=
EXTT10=
PLAYORDER=
